<?xml version="1.0" standalone="no"?>
<!DOCTYPE svg PUBLIC "-//W3C//DTD SVG 20010904//EN"
 "http://www.w3.org/TR/2001/REC-SVG-20010904/DTD/svg10.dtd">
<svg version="1.0" xmlns="http://www.w3.org/2000/svg"
 width="900.000000pt" height="500.000000pt" viewBox="0 0 900.000000 500.000000"
 preserveAspectRatio="xMidYMid meet">

<g transform="translate(0.000000,500.000000) scale(0.100000,-0.100000)"
fill="#000000" stroke="none">
<path d="M694 2524 c-275 -428 -500 -781 -502 -786 -2 -4 61 -8 140 -8 l144 0
122 185 121 185 471 0 470 0 122 -185 123 -184 143 -1 c78 0 142 3 142 6 0 4
-981 1544 -995 1562 -2 2 -227 -347 -501 -774z m652 78 l150 -237 -153 -3
c-84 -1 -223 -1 -309 0 l-155 3 153 237 c84 131 155 237 158 237 3 0 73 -107
156 -237z"/>
<path d="M7437 3284 c-241 -37 -451 -132 -594 -267 -150 -141 -226 -316 -226
-517 -1 -199 77 -377 227 -518 218 -206 589 -311 999 -282 161 12 226 23 352
61 260 80 452 234 550 442 51 106 68 199 62 332 -6 122 -19 173 -74 285 -30
60 -57 95 -142 180 -97 96 -116 110 -221 162 -208 103 -382 139 -671 137 -96
-1 -214 -7 -262 -15z m539 -259 c357 -68 574 -267 574 -525 0 -308 -299 -523
-760 -546 -415 -21 -749 114 -865 350 -172 348 121 688 635 736 124 11 314 5
416 -15z"/>
<path d="M2430 2500 l0 -770 765 0 765 0 0 125 0 125 -635 0 -635 0 0 645 0
645 -130 0 -130 0 0 -770z"/>
<path d="M4280 2501 l0 -771 553 0 c592 0 661 4 843 50 205 51 337 124 457
249 135 142 193 300 184 501 -16 359 -272 620 -697 712 -89 20 -134 21 -717
25 l-623 4 0 -770z m1253 495 c235 -44 400 -144 472 -286 141 -277 6 -556
-320 -663 -165 -54 -216 -59 -697 -64 l-448 -6 0 523 0 522 453 -5 c359 -3
470 -8 540 -21z"/>
</g>
</svg>
